<?xml version="1.0" standalone="no"?>
<!DOCTYPE svg PUBLIC "-//W3C//DTD SVG 20010904//EN"
 "http://www.w3.org/TR/2001/REC-SVG-20010904/DTD/svg10.dtd">
<svg version="1.0" xmlns="http://www.w3.org/2000/svg"
 width="700.000000pt" height="700.000000pt" viewBox="0 0 700.000000 700.000000"
 preserveAspectRatio="xMidYMid meet">
<metadata>
Created by potrace 1.14, written by Peter Selinger 2001-2017
</metadata>
<g transform="translate(0.000000,700.000000) scale(0.100000,-0.100000)"
fill="#000000" stroke="none">
<path d="M3425 6988 c-16 -6 -38 -17 -49 -24 -44 -30 -2113 -2102 -2182 -2186
-221 -266 -382 -539 -497 -843 -46 -121 -104 -314 -113 -375 -3 -19 -9 -48
-14 -65 -4 -16 -11 -51 -15 -76 -3 -25 -8 -59 -10 -75 -12 -74 -15 -94 -22
-174 -13 -157 -7 -512 12 -624 2 -12 11 -64 20 -116 9 -52 21 -113 27 -135 5
-22 12 -51 15 -65 19 -108 133 -422 206 -567 101 -201 237 -415 350 -550 400
-479 877 -801 1447 -977 123 -37 260 -72 325 -81 22 -3 46 -8 53 -10 7 -3 34
-7 60 -10 26 -3 56 -8 67 -10 61 -12 214 -20 395 -20 239 0 318 6 520 41 515
87 966 291 1390 628 101 80 360 341 443 446 122 153 328 481 352 561 4 13 11
29 15 34 14 18 71 157 106 260 59 169 114 392 128 520 3 28 8 61 11 75 29 142
25 552 -6 755 -38 241 -116 529 -185 683 -13 29 -24 55 -24 57 0 9 -86 183
-129 260 -67 121 -180 287 -278 410 -110 138 -2190 2217 -2243 2242 -43 20
-134 26 -175 11z"/>
</g>
</svg>
